<svg  viewBox="0 0 78 79" fill="none" xmlns="http://www.w3.org/2000/svg">
<path d="M52.1981 44.6843C52.3036 44.286 52.3388 43.8515 52.3388 43.3808V40.7376C52.3388 40.3755 52.3036 39.941 52.2333 39.579C51.8465 37.841 50.4751 36.4288 48.506 36.4288C45.7281 36.4288 44.1809 38.9634 44.1809 42.2584C44.1809 45.4809 45.7281 47.8345 48.4708 47.8345C50.229 47.8345 51.7762 46.6034 52.1981 44.6843Z" fill="black"/>
<path fill-rule="evenodd" clip-rule="evenodd" d="M22.5894 10.1432C33.6119 8.87464 45.0071 8.87464 56.0296 10.1432C62.0982 10.8416 66.9929 15.7652 67.7052 22.036C69.0231 33.6391 69.0231 45.3609 67.7052 56.964C66.9929 63.2348 62.0982 68.1584 56.0296 68.8568C45.0071 70.1254 33.612 70.1254 22.5894 68.8568C16.5209 68.1584 11.6262 63.2348 10.9139 56.964C9.59599 45.3609 9.59599 33.6391 10.9139 22.036C11.6262 15.7652 16.5209 10.8416 22.5894 10.1432ZM52.3388 35.3064V25.3129H56.6639V46.0603C56.6639 47.8707 56.7342 49.8259 56.8045 51.0208H52.9366L52.7607 48.2328H52.6904C51.6707 50.188 49.596 51.4191 47.0994 51.4191C43.0205 51.4191 39.7855 47.8345 39.7855 42.4032C39.7503 36.5013 43.337 32.989 47.4511 32.989C49.807 32.989 51.4949 34.0029 52.2684 35.3064H52.3388ZM32.6077 38.5289L39.8162 51.0208H34.823L32.2561 46.1689C31.2364 44.286 30.5683 42.9825 29.9002 41.5704H29.7947C29.232 42.9825 28.5991 44.286 27.6497 46.1689L25.2938 51.0208H20.3357L27.3684 38.6738L20.617 26.6164H25.5751L28.142 31.6493C28.9156 33.1701 29.4782 34.365 30.1111 35.7409H30.1815C30.8144 34.2201 31.3067 33.1339 32.0451 31.6493L34.5769 26.6164H39.5349L32.6077 38.5289Z" fill="black"/>
</svg>
