<svg  viewBox="0 0 147 60" fill="none" xmlns="http://www.w3.org/2000/svg">
<path d="M11.0938 45.3594C12.7865 45.0469 14.7786 44.5911 17.0703 43.9922C16.4193 43.4453 15.6771 43.0156 14.8438 42.7031C14.0625 42.4427 13.138 42.2995 12.0703 42.2734C11.7318 43.3932 11.4062 44.4219 11.0938 45.3594ZM9.375 45.6719C9.6875 44.6562 10.026 43.5495 10.3906 42.3516C10.1042 42.3516 9.80469 42.3776 9.49219 42.4297C6.39323 42.9245 4.375 43.4453 3.4375 43.9922C2.76042 44.3047 2.30469 44.5781 2.07031 44.8125C1.83594 45.0208 1.73177 45.151 1.75781 45.2031C1.75781 45.2812 1.88802 45.3854 2.14844 45.5156C2.4349 45.6458 2.89062 45.763 3.51562 45.8672C4.16667 45.9714 5.03906 46.0104 6.13281 45.9844C6.96615 45.9844 8.04688 45.8802 9.375 45.6719ZM12.5 40.75C13.4896 40.8021 14.362 40.9453 15.1172 41.1797C16.6016 41.7005 17.8385 42.4688 18.8281 43.4844L19.7656 43.1719C23.75 41.8438 27.487 39.513 30.9766 36.1797C34.4661 32.8464 37.0964 29.1094 38.8672 24.9688C39.8047 22.8854 40.3776 20.3984 40.5859 17.5078C40.7943 14.6172 40.1172 11.5703 38.5547 8.36719C36.7057 4.98177 33.5156 3.22396 28.9844 3.09375C25.5469 3.01562 21.8229 4.07031 17.8125 6.25781C13.8021 8.41927 10.3906 11.8307 7.57812 16.4922C7.44792 16.6745 7.27865 16.7917 7.07031 16.8438C6.88802 16.8958 6.69271 16.8698 6.48438 16.7656C6.30208 16.6615 6.1849 16.5182 6.13281 16.3359C6.08073 16.1276 6.10677 15.9193 6.21094 15.7109C8.73698 11.4141 12.0703 7.97656 16.2109 5.39844C20.3516 2.82031 24.6094 1.53125 28.9844 1.53125C34.1406 1.6875 37.7865 3.73177 39.9219 7.66406C42.7865 13.1589 42.9167 19.1224 40.3125 25.5547C38.4896 29.9557 35.6641 33.9531 31.8359 37.5469C28.0859 40.9844 24.2188 43.3542 20.2344 44.6562L20 44.7344C20.4427 45.2812 20.8984 45.8411 21.3672 46.4141C22.3307 47.7161 23.5156 49.0703 24.9219 50.4766C26.3542 51.8568 28.2682 53.1458 30.6641 54.3438C33.0599 55.5156 36.237 56.4401 40.1953 57.1172C40.4297 57.1693 40.599 57.2734 40.7031 57.4297C40.8333 57.612 40.8854 57.8073 40.8594 58.0156C40.8073 58.224 40.7031 58.3802 40.5469 58.4844C40.4167 58.6146 40.2604 58.6797 40.0781 58.6797H39.9609C35.7943 57.9505 32.4479 56.9609 29.9219 55.7109C27.3958 54.4609 25.3906 53.1068 23.9062 51.6484C22.4219 50.1901 21.1589 48.7708 20.1172 47.3906C19.5182 46.6094 18.9323 45.8932 18.3594 45.2422C15.4167 46.0755 12.8255 46.6875 10.5859 47.0781L9.29688 51.375L7.07031 59.1094C6.91406 59.474 6.66667 59.6562 6.32812 59.6562H6.09375C5.88542 59.5781 5.72917 59.4479 5.625 59.2656C5.52083 59.0833 5.49479 58.888 5.54688 58.6797L7.8125 50.9453C8.09896 49.9818 8.46354 48.7708 8.90625 47.3125C7.96875 47.4167 7.1224 47.4818 6.36719 47.5078C3.3724 47.5859 1.47135 47.2083 0.664062 46.375C0.221354 45.8802 0.0911458 45.3203 0.273438 44.6953C1.05469 42.9245 4.0625 41.6615 9.29688 40.9062C9.84375 40.8281 10.3776 40.776 10.8984 40.75C12.1745 36.5573 13.5286 32.1432 14.9609 27.5078C16.4453 22.638 17.7474 18.4062 18.8672 14.8125C19.987 11.2188 20.625 9.16146 20.7812 8.64062V8.60156C20.8594 8.39323 20.9896 8.25 21.1719 8.17188C21.3542 8.06771 21.5495 8.04167 21.7578 8.09375C21.9661 8.17188 22.1224 8.30208 22.2266 8.48438C22.3307 8.66667 22.3568 8.86198 22.3047 9.07031C22.2266 9.33073 21.6276 11.2318 20.5078 14.7734C19.4141 18.3151 18.112 22.5469 16.6016 27.4688C15.1693 32.1042 13.8021 36.5312 12.5 40.75ZM46.4844 38.9531C46.4844 39.2656 46.3672 39.5391 46.1328 39.7734C45.9245 39.9818 45.6641 40.0859 45.3516 40.0859C45.0391 40.0859 44.7656 39.9818 44.5312 39.7734C44.3229 39.5391 44.2188 39.2656 44.2188 38.9531C44.2188 38.6406 44.3229 38.3802 44.5312 38.1719C44.7656 37.9375 45.0391 37.8203 45.3516 37.8203C45.6641 37.8203 45.9245 37.9375 46.1328 38.1719C46.3672 38.3802 46.4844 38.6406 46.4844 38.9531ZM54.1797 31.3359C50.7943 40.3984 50.1432 47.3516 52.2266 52.1953C53.0339 53.888 54.1536 54.9818 55.5859 55.4766C57.5391 56.1016 59.7656 55.7109 62.2656 54.3047C64.7917 52.8724 67.3698 50.5677 70 47.3906C72.9948 43.6667 75.5208 39.4479 77.5781 34.7344C79.6615 30.0208 80.9245 25.3854 81.3672 20.8281C81.8359 16.2448 81.1719 12.2734 79.375 8.91406C76.6927 4.53906 72.8255 2.89844 67.7734 3.99219C65.5859 4.51302 63.4635 5.56771 61.4062 7.15625C59.349 8.71875 57.6172 10.724 56.2109 13.1719C54.8047 15.6198 53.9974 18.4193 53.7891 21.5703C53.6849 23.4974 53.8542 25.3203 54.2969 27.0391C55.7812 23.9661 57.3177 21.362 58.9062 19.2266C60.5208 17.0911 61.9922 15.3984 63.3203 14.1484C65.013 12.5599 66.3932 11.401 67.4609 10.6719C68.5547 9.91667 69.1536 9.53906 69.2578 9.53906C69.4401 9.4349 69.6354 9.42188 69.8438 9.5C70.0521 9.55208 70.2083 9.66927 70.3125 9.85156C70.3906 10.0599 70.4036 10.2682 70.3516 10.4766C70.2995 10.6589 70.1693 10.8021 69.9609 10.9062C69.9089 10.9062 69.362 11.2578 68.3203 11.9609C67.2786 12.6641 65.9635 13.7839 64.375 15.3203C62.9688 16.6224 61.4323 18.4323 59.7656 20.75C58.099 23.0417 56.5104 25.8802 55 29.2656C56.0417 31.8177 57.2917 33.901 58.75 35.5156C60.2344 37.1302 61.4714 38.1589 62.4609 38.6016C62.6693 38.6797 62.8125 38.8229 62.8906 39.0312C62.9688 39.2135 62.9557 39.4089 62.8516 39.6172C62.7734 39.8255 62.6302 39.9688 62.4219 40.0469C62.2396 40.125 62.0443 40.112 61.8359 40.0078C60.8203 39.5911 59.5833 38.6406 58.125 37.1562C56.6667 35.6458 55.3516 33.7057 54.1797 31.3359ZM56.9922 57.3125C56.3411 57.2865 55.7161 57.1693 55.1172 56.9609C53.2422 56.3359 51.7969 54.9688 50.7812 52.8594C48.4896 47.4688 49.2188 39.8646 52.9688 30.0469C53.099 29.7865 53.2161 29.513 53.3203 29.2266C52.4609 26.9089 52.0964 24.3177 52.2266 21.4531C52.4609 18.0677 53.3333 15.0469 54.8438 12.3906C56.3802 9.73438 58.2682 7.5599 60.5078 5.86719C62.7474 4.17448 65.0521 3.04167 67.4219 2.46875C73.2292 1.21875 77.6562 3.10677 80.7031 8.13281C82.4219 11.362 83.2161 14.7865 83.0859 18.4062C82.9818 22.026 82.487 25.3073 81.6016 28.25C79.4401 35.6719 75.9766 42.3776 71.2109 48.3672C66.1068 54.487 61.3672 57.4688 56.9922 57.3125ZM82.1484 47.7031C81.862 47.7031 81.6016 47.6641 81.3672 47.5859C80.8984 47.4036 80.599 47.026 80.4688 46.4531C80.3125 45.724 80.599 44.6823 81.3281 43.3281C82.0573 41.9479 83.4245 40.3333 85.4297 38.4844C85.638 38.276 85.8594 38.0677 86.0938 37.8594C86.0417 36.5833 85.9375 35.3984 85.7812 34.3047C85.625 33.1849 85.4948 32.3385 85.3906 31.7656C85.2083 30.4635 85.4948 29.4089 86.25 28.6016C87.0052 27.7682 87.7474 27.2214 88.4766 26.9609C88.6849 26.8828 88.8802 26.8958 89.0625 27C89.2708 27.0781 89.4141 27.2083 89.4922 27.3906C89.5703 27.599 89.5703 27.8073 89.4922 28.0156C89.4141 28.1979 89.2708 28.3281 89.0625 28.4062C89.0104 28.4323 88.8542 28.5104 88.5938 28.6406C88.3594 28.7708 88.0859 28.9661 87.7734 29.2266C87.487 29.487 87.2526 29.8125 87.0703 30.2031C86.888 30.5677 86.8359 30.9974 86.9141 31.4922C87.1745 32.7422 87.3958 34.4479 87.5781 36.6094C89.7396 34.8646 91.6406 33.4453 93.2812 32.3516C94.9219 31.2318 95.7943 30.6458 95.8984 30.5938C96.0807 30.4896 96.276 30.4635 96.4844 30.5156C96.6927 30.5417 96.862 30.6458 96.9922 30.8281C97.0964 31.0365 97.1224 31.2448 97.0703 31.4531C97.0182 31.6354 96.901 31.7917 96.7188 31.9219C96.5885 31.974 95.612 32.625 93.7891 33.875C91.9922 35.099 89.9609 36.6615 87.6953 38.5625C87.7474 40.4896 87.513 42.1693 86.9922 43.6016C86.3672 45.0339 85.599 46.0755 84.6875 46.7266C83.75 47.3776 82.9036 47.7031 82.1484 47.7031ZM82.0312 46.1406C82.3958 46.2188 82.9297 46.0365 83.6328 45.5938C84.3359 45.125 84.974 44.2656 85.5469 43.0156C85.8594 42.1562 86.0417 41.1406 86.0938 39.9688C84.375 41.6354 83.2422 43.0026 82.6953 44.0703C82.1484 45.138 81.9271 45.8281 82.0312 46.1406ZM98.0078 40.5156C95.8464 40.4896 94.5443 39.4479 94.1016 37.3906C93.8151 35.6979 94.1667 33.875 95.1562 31.9219C96.224 29.8906 97.5651 28.6016 99.1797 28.0547C99.9609 27.8203 100.599 27.8464 101.094 28.1328C101.589 28.3932 101.914 28.7708 102.07 29.2656C102.279 29.9427 102.214 30.6458 101.875 31.375C101.562 32.1042 101.003 32.625 100.195 32.9375C99.7526 33.0677 99.2839 33.1068 98.7891 33.0547C98.3203 33.0026 97.8776 32.9245 97.4609 32.8203C97.0703 32.6901 96.7839 32.5859 96.6016 32.5078C95.7422 34.1484 95.4167 35.6849 95.625 37.1172C95.8854 38.4453 96.7708 39.0573 98.2812 38.9531C101.771 38.7448 105.326 36.0625 108.945 30.9062C109.102 30.724 109.271 30.6198 109.453 30.5938C109.661 30.5417 109.857 30.5807 110.039 30.7109C110.221 30.8411 110.326 31.0104 110.352 31.2188C110.404 31.4271 110.365 31.6224 110.234 31.8047C108.984 33.7057 107.37 35.5677 105.391 37.3906C103.411 39.1875 101.081 40.2292 98.3984 40.5156C98.2682 40.5156 98.138 40.5156 98.0078 40.5156ZM97.5 31.1406C97.8646 31.2708 98.2552 31.375 98.6719 31.4531C99.0885 31.5052 99.4271 31.5052 99.6875 31.4531C100.078 31.2969 100.352 31.0495 100.508 30.7109C100.664 30.3464 100.69 30.0339 100.586 29.7734C100.586 29.7214 100.56 29.6693 100.508 29.6172C100.456 29.5391 100.365 29.487 100.234 29.4609C100.104 29.4349 99.9089 29.4609 99.6484 29.5391C98.8411 29.8255 98.125 30.3594 97.5 31.1406ZM106.523 49.7734C106.341 49.7734 106.172 49.7083 106.016 49.5781C105.885 49.5 105.742 49.3438 105.586 49.1094C105.43 48.849 105.312 48.4323 105.234 47.8594C105.13 47.2604 105.13 46.4141 105.234 45.3203C105.339 44.2266 105.599 42.7943 106.016 41.0234C106.641 38.4453 107.513 35.5547 108.633 32.3516L109.336 30.4375C109.935 28.849 110.586 27.2344 111.289 25.5938C113.372 20.6198 115.078 16.8438 116.406 14.2656C117.76 11.6875 118.828 9.92969 119.609 8.99219C120.391 8.05469 121.016 7.53385 121.484 7.42969C121.875 7.29948 122.188 7.28646 122.422 7.39062C122.656 7.49479 122.812 7.59896 122.891 7.70312C123.438 8.22396 123.307 9.52604 122.5 11.6094C121.901 13.1719 121.003 15.138 119.805 17.5078C118.633 19.7214 117.109 22.1823 115.234 24.8906C113.359 27.599 111.862 29.6953 110.742 31.1797C109.31 34.9818 108.242 38.3932 107.539 41.4141C107.331 42.2734 107.174 43.0417 107.07 43.7188C106.94 44.3698 106.849 44.9427 106.797 45.4375C106.745 45.9323 106.719 46.362 106.719 46.7266C106.719 47.0651 106.732 47.3516 106.758 47.5859C106.784 47.7943 106.823 47.9635 106.875 48.0938C106.901 48.1979 106.927 48.276 106.953 48.3281C106.979 48.3542 107.005 48.3672 107.031 48.3672C107.188 48.5234 107.279 48.7057 107.305 48.9141C107.305 49.1224 107.24 49.3177 107.109 49.5C106.927 49.6823 106.732 49.7734 106.523 49.7734ZM121.641 9.10938C121.38 9.29167 121.016 9.70833 120.547 10.3594C120.078 10.9844 119.466 11.9609 118.711 13.2891C117.201 16.0234 115.352 19.9557 113.164 25.0859C115.326 22.0391 117.083 19.2786 118.438 16.8047C120.521 12.5339 121.589 9.96875 121.641 9.10938ZM116.25 40.2422C115.781 40.2422 115.378 40.125 115.039 39.8906C114.622 39.526 114.388 39.0833 114.336 38.5625C114.258 38.0156 114.271 37.4948 114.375 37C114.453 36.4792 114.544 36.0755 114.648 35.7891C115.221 33.862 116.432 31.2448 118.281 27.9375C118.385 27.7552 118.542 27.638 118.75 27.5859C118.958 27.5078 119.154 27.5208 119.336 27.625C119.518 27.7552 119.635 27.9245 119.688 28.1328C119.766 28.3151 119.753 28.5104 119.648 28.7188C119.154 29.5781 118.711 30.3854 118.32 31.1406C117.956 31.8698 117.63 32.5339 117.344 33.1328C117.083 33.7318 116.862 34.2656 116.68 34.7344C116.497 35.2031 116.354 35.6328 116.25 36.0234C116.12 36.388 116.029 36.7135 115.977 37C115.898 37.2604 115.859 37.4948 115.859 37.7031C115.833 37.8854 115.833 38.0417 115.859 38.1719C115.859 38.276 115.872 38.3672 115.898 38.4453C115.924 38.4974 115.951 38.5495 115.977 38.6016C115.977 38.6276 115.977 38.6406 115.977 38.6406C115.977 38.6406 116.003 38.6536 116.055 38.6797C116.081 38.6797 116.133 38.6797 116.211 38.6797C116.263 38.6797 116.354 38.6797 116.484 38.6797C116.615 38.6536 116.771 38.6146 116.953 38.5625C117.135 38.5104 117.344 38.4323 117.578 38.3281C117.839 38.1979 118.125 38.0417 118.438 37.8594C118.776 37.6771 119.154 37.4427 119.57 37.1562C121.706 35.6979 124.128 33.6016 126.836 30.8672C126.992 30.7109 127.174 30.6328 127.383 30.6328C127.591 30.6328 127.786 30.6979 127.969 30.8281C128.125 31.0104 128.203 31.2057 128.203 31.4141C128.203 31.6224 128.125 31.8047 127.969 31.9609C127.057 32.8984 125.885 34.0052 124.453 35.2812C123.047 36.5573 121.602 37.6901 120.117 38.6797C118.633 39.6693 117.344 40.1901 116.25 40.2422ZM120.703 25.2812C120.573 25.2812 120.456 25.2552 120.352 25.2031C120.143 25.099 120 24.9557 119.922 24.7734C119.87 24.5651 119.896 24.3568 120 24.1484L120.547 23.0938C120.651 22.9115 120.794 22.7943 120.977 22.7422C121.185 22.6641 121.38 22.6641 121.562 22.7422C121.771 22.8464 121.901 23.0026 121.953 23.2109C122.031 23.4193 122.018 23.6146 121.914 23.7969L121.406 24.8516C121.224 25.138 120.99 25.2812 120.703 25.2812ZM122.773 43.1328C122.669 43.1328 122.552 43.1068 122.422 43.0547C122.24 42.9505 122.122 42.8073 122.07 42.625C121.992 42.4427 121.992 42.2474 122.07 42.0391L128.633 27C128.711 26.8177 128.841 26.6875 129.023 26.6094C129.232 26.5312 129.44 26.5312 129.648 26.6094C129.857 26.6875 130 26.8307 130.078 27.0391C130.156 27.2214 130.143 27.4167 130.039 27.625L127.227 34.1094C128.164 32.8073 129.023 31.7917 129.805 31.0625C130.742 30.1771 131.51 29.5651 132.109 29.2266C132.708 28.862 133.19 28.6667 133.555 28.6406C133.919 28.5885 134.206 28.6146 134.414 28.7188C134.596 28.7969 134.792 28.9531 135 29.1875C135.208 29.4219 135.312 29.8125 135.312 30.3594C135.312 30.5417 135.299 30.763 135.273 31.0234C135.221 31.7786 135.234 32.7161 135.312 33.8359C135.391 34.9557 135.69 35.763 136.211 36.2578C136.237 36.2839 136.289 36.3229 136.367 36.375C136.471 36.4271 136.602 36.4661 136.758 36.4922C136.94 36.5182 137.174 36.4922 137.461 36.4141C138.32 36.1797 139.206 35.776 140.117 35.2031C141.029 34.6302 141.862 34.0182 142.617 33.3672C143.398 32.7161 144.023 32.1562 144.492 31.6875C144.961 31.1927 145.208 30.9323 145.234 30.9062C145.391 30.75 145.573 30.6719 145.781 30.6719C145.99 30.6458 146.172 30.7109 146.328 30.8672C146.484 31.0234 146.562 31.2057 146.562 31.4141C146.589 31.6224 146.523 31.8047 146.367 31.9609C146.289 32.0911 145.82 32.5729 144.961 33.4062C144.102 34.2135 143.034 35.0729 141.758 35.9844C140.482 36.8958 139.167 37.5469 137.812 37.9375C137.188 38.0677 136.654 38.0807 136.211 37.9766C135.794 37.8464 135.469 37.6771 135.234 37.4688C134.427 36.7396 133.958 35.724 133.828 34.4219C133.698 33.1198 133.659 31.974 133.711 30.9844C133.711 30.9844 133.711 30.9714 133.711 30.9453C133.737 30.7109 133.75 30.5156 133.75 30.3594C133.75 30.2812 133.737 30.2292 133.711 30.2031C133.607 30.2031 133.32 30.3333 132.852 30.5938C132.409 30.8542 131.745 31.388 130.859 32.1953C130.208 32.8203 129.466 33.7057 128.633 34.8516C127.799 35.9714 126.992 37.1302 126.211 38.3281C125.43 39.526 124.792 40.5547 124.297 41.4141C123.776 42.2474 123.49 42.6901 123.438 42.7422C123.255 43.0026 123.034 43.1328 122.773 43.1328Z" fill="black"/>
</svg>
