<svg viewBox="0 0 77 79" fill="none" xmlns="http://www.w3.org/2000/svg">
<path d="M31.5716 29.8389C30.3761 29.8389 29.5322 29.9476 29.075 30.0562V38.3117C29.6025 38.4565 30.3058 38.4927 31.1848 38.4927C34.4199 38.4927 36.389 36.8633 36.389 34.0029C36.389 31.2873 34.5605 29.8389 31.5716 29.8389Z" fill="black"/>
<path fill-rule="evenodd" clip-rule="evenodd" d="M21.64 10.1432C32.6625 8.87464 44.0577 8.87464 55.0802 10.1432C61.1487 10.8416 66.0434 15.7652 66.7557 22.036C68.0736 33.6391 68.0736 45.3609 66.7557 56.964C66.0434 63.2348 61.1487 68.1584 55.0802 68.8568C44.0577 70.1254 32.6625 70.1254 21.64 68.8568C15.5714 68.1584 10.6767 63.2348 9.96444 56.964C8.64652 45.3609 8.64652 33.6391 9.96444 22.036C10.6767 15.7652 15.5714 10.8416 21.64 10.1432ZM29.075 51.0208H24.7851V26.9423C26.3323 26.6526 28.4773 26.4354 31.3958 26.4354C34.5605 26.4354 36.8813 27.1233 38.3933 28.4268C39.7999 29.6217 40.7141 31.5407 40.7141 33.8218C40.7141 36.1392 40.0108 38.0582 38.6746 39.3617C36.9516 41.1359 34.2441 41.9687 31.1848 41.9687C30.3761 41.9687 29.6377 41.9325 29.075 41.8239V51.0208ZM46.2386 51.4191C44.164 51.4191 42.3003 50.876 41.0344 50.1518L41.8783 46.9293C42.8629 47.5448 44.7266 48.1966 46.2738 48.1966C48.1726 48.1966 49.0165 47.4 49.0165 46.2413C49.0165 45.0464 48.3132 44.4309 46.2034 43.6705C42.8629 42.4756 41.4564 40.5928 41.4915 38.5289C41.4915 35.415 43.9881 32.9891 47.9616 32.9891C49.8604 32.9891 51.5131 33.496 52.4977 34.0391L51.6538 37.1892C50.9153 36.7547 49.544 36.1754 48.0319 36.1754C46.4847 36.1754 45.6408 36.9358 45.6408 38.022C45.6408 39.1445 46.4496 39.6876 48.6297 40.4842C51.7241 41.6428 53.1658 43.2722 53.2009 45.8792C53.2009 49.0656 50.7747 51.4191 46.2386 51.4191Z" fill="black"/>
</svg>
