<svg viewBox="0 0 83 84" fill="none" xmlns="http://www.w3.org/2000/svg">
<path d="M31.1942 36.925L29.25 43.316H35.7182L33.7366 36.925C33.3432 35.6474 32.9988 34.2437 32.6836 32.9589C32.6093 32.6563 32.5367 32.3602 32.4654 32.074H32.3906C32.2625 32.5884 32.1344 33.1391 32.0033 33.7026C31.7518 34.7838 31.4891 35.9126 31.1942 36.925Z" fill="black"/>
<path d="M52.545 38.311C49.7034 38.311 48.507 40.9675 48.3201 42.8925H56.3213C56.3587 41.16 55.6109 38.311 52.545 38.311Z" fill="black"/>
<path fill-rule="evenodd" clip-rule="evenodd" d="M23.5609 10.7852C35.281 9.43635 47.3974 9.43635 59.1176 10.7852C65.5702 11.5278 70.7747 16.763 71.532 23.4307C72.9334 35.7682 72.9334 48.2319 71.532 60.5694C70.7747 67.2371 65.5702 72.4723 59.1176 73.2149C47.3974 74.5637 35.281 74.5637 23.5609 73.2149C17.1083 72.4723 11.9037 67.2371 11.1464 60.5694C9.74506 48.2319 9.74506 35.7682 11.1464 23.4307C11.9037 16.763 17.1083 11.5278 23.5609 10.7852ZM38.7841 54.25L36.5034 46.8965H28.5022L26.3336 54.25H21.5852L29.6612 28.301H35.5313L43.7195 54.25H38.7841ZM60.6584 44.2015C60.6584 45.087 60.5836 45.78 60.5088 46.2035H48.3201C48.4322 49.5915 51.0121 51.0545 53.9284 51.0545C56.0596 51.0545 57.5925 50.7465 58.9759 50.2075L59.6489 53.48C58.0786 54.1345 55.91 54.6735 53.2928 54.6735C47.3853 54.6735 43.9082 50.9005 43.9082 45.164C43.9082 39.9665 46.9741 35.077 52.8067 35.077C58.7516 35.077 60.6584 40.082 60.6584 44.2015Z" fill="black"/>
</svg>
