<svg  viewBox="0 0 59 59" fill="none" xmlns="http://www.w3.org/2000/svg">
<path d="M29.059 16.9037C21.8424 16.9037 16.0216 22.7245 16.0216 29.941C16.0216 37.1576 21.8424 42.9784 29.059 42.9784C36.2755 42.9784 42.0964 37.1576 42.0964 29.941C42.0964 22.7245 36.2755 16.9037 29.059 16.9037ZM29.059 38.417C24.3955 38.417 20.583 34.6159 20.583 29.941C20.583 25.2662 24.3841 21.465 29.059 21.465C33.7338 21.465 37.535 25.2662 37.535 29.941C37.535 34.6159 33.7225 38.417 29.059 38.417ZM45.6706 16.3704C45.6706 18.061 44.309 19.4113 42.6297 19.4113C40.939 19.4113 39.5887 18.0497 39.5887 16.3704C39.5887 14.691 40.9503 13.3294 42.6297 13.3294C44.309 13.3294 45.6706 14.691 45.6706 16.3704ZM54.3054 19.4567C54.1125 15.3832 53.1821 11.7749 50.1979 8.80209C47.2251 5.82925 43.6168 4.89882 39.5433 4.69458C35.3451 4.4563 22.7615 4.4563 18.5632 4.69458C14.5011 4.88747 10.8929 5.81791 7.90867 8.79075C4.92448 11.7636 4.0054 15.3718 3.80116 19.4453C3.56287 23.6436 3.56287 36.2271 3.80116 40.4254C3.99405 44.4989 4.92448 48.1071 7.90867 51.08C10.8929 54.0528 14.4898 54.9833 18.5632 55.1875C22.7615 55.4258 35.3451 55.4258 39.5433 55.1875C43.6168 54.9946 47.2251 54.0642 50.1979 51.08C53.1708 48.1071 54.1012 44.4989 54.3054 40.4254C54.5437 36.2271 54.5437 23.655 54.3054 19.4567ZM48.8817 44.9301C47.9966 47.154 46.2833 48.8674 44.048 49.7638C40.7007 51.0913 32.758 50.785 29.059 50.785C25.3599 50.785 17.4059 51.08 14.0699 49.7638C11.846 48.8787 10.1326 47.1654 9.23624 44.9301C7.90867 41.5828 8.21503 33.6401 8.21503 29.941C8.21503 26.242 7.92002 18.288 9.23624 14.952C10.1213 12.7281 11.8346 11.0147 14.0699 10.1183C17.4172 8.79075 25.3599 9.09711 29.059 9.09711C32.758 9.09711 40.7121 8.80209 44.048 10.1183C46.2719 11.0034 47.9853 12.7167 48.8817 14.952C50.2093 18.2993 49.9029 26.242 49.9029 29.941C49.9029 33.6401 50.2093 41.5941 48.8817 44.9301Z" fill="white"/>
</svg>
