<svg  viewBox="0 0 59 59" fill="none" xmlns="http://www.w3.org/2000/svg">
<path d="M15.6523 50.8334H5.11346V16.8954H15.6523V50.8334ZM10.3772 12.2659C7.00723 12.2659 4.2738 9.4746 4.2738 6.10463C4.2738 4.4859 4.91684 2.93348 6.06145 1.78887C7.20606 0.644256 8.75848 0.0012207 10.3772 0.0012207C11.9959 0.0012207 13.5484 0.644256 14.693 1.78887C15.8376 2.93348 16.4806 4.4859 16.4806 6.10463C16.4806 9.4746 13.7461 12.2659 10.3772 12.2659ZM55.0958 50.8334H44.5796V34.3126C44.5796 30.3753 44.5002 25.326 39.1003 25.326C33.621 25.326 32.7813 29.6037 32.7813 34.0289V50.8334H22.2538V16.8954H32.3615V21.5248H32.509C33.916 18.8583 37.3529 16.0444 42.4805 16.0444C53.1464 16.0444 55.1071 23.068 55.1071 32.1908V50.8334H55.0958Z" fill="white"/>
</svg>
