<svg viewBox="0 0 57 59" fill="none" xmlns="http://www.w3.org/2000/svg">
<g clip-path="url(#clip0_12_514)">
<path d="M28.369 1.8125C13.2237 1.8125 0.932667 14.4187 0.932667 29.9524C0.932667 45.486 13.2237 58.0923 28.369 58.0923C43.5144 58.0923 55.8054 45.486 55.8054 29.9524C55.8054 14.4187 43.5144 1.8125 28.369 1.8125ZM39.5095 43.2167C39.0449 43.2167 38.7573 43.0692 38.3258 42.8082C31.4225 38.5418 23.3907 38.3603 15.4585 40.0283C15.027 40.1417 14.4628 40.3233 14.142 40.3233C13.0688 40.3233 12.394 39.4496 12.394 38.5305C12.394 37.3618 13.0688 36.8058 13.8986 36.6243C22.9592 34.5705 32.219 34.752 40.118 39.5971C40.7929 40.0396 41.1911 40.4368 41.1911 41.4693C41.1911 42.5019 40.4057 43.2167 39.5095 43.2167ZM42.4855 35.7732C41.9102 35.7732 41.523 35.5123 41.1248 35.2967C34.2103 31.0984 23.8996 29.4077 14.7283 31.9608C14.1973 32.1083 13.9096 32.2558 13.4118 32.2558C12.228 32.2558 11.2656 31.2686 11.2656 30.0545C11.2656 28.8404 11.8408 28.0348 12.9803 27.7057C16.0559 26.8207 19.1978 26.1626 23.8 26.1626C30.9799 26.1626 37.9165 27.9894 43.3816 31.3253C44.2777 31.87 44.6317 32.5735 44.6317 33.5606C44.6207 34.7861 43.6914 35.7732 42.4855 35.7732ZM45.9151 27.127C45.3398 27.127 44.9858 26.9795 44.4879 26.6845C36.611 21.8622 22.5278 20.7048 13.4118 23.3145C13.0135 23.428 12.5157 23.6096 11.9847 23.6096C10.5243 23.6096 9.40697 22.4408 9.40697 20.9317C9.40697 19.3886 10.3363 18.5149 11.3319 18.2199C15.2261 17.0512 19.585 16.4952 24.331 16.4952C32.4071 16.4952 40.8703 18.2199 47.0546 21.9189C47.9175 22.4295 48.4817 23.133 48.4817 24.4833C48.4817 26.0264 47.2648 27.127 45.9151 27.127Z" fill="white"/>
</g>
<defs>
<clipPath id="clip0_12_514">
<rect width="56.6429" height="58.0952" fill="white" transform="translate(0.0476227 0.904785)"/>
</clipPath>
</defs>
</svg>
