<svg  viewBox="0 0 79 80" fill="none" xmlns="http://www.w3.org/2000/svg">
<path fill-rule="evenodd" clip-rule="evenodd" d="M22.3237 10.2716C33.4857 8.98696 45.0252 8.98696 56.1872 10.2716C62.3325 10.9788 67.2892 15.9647 68.0105 22.3149C69.3451 34.0649 69.3451 45.9351 68.0105 57.6851C67.2892 64.0352 62.3325 69.0212 56.1872 69.7284C45.0252 71.013 33.4857 71.013 22.3237 69.7284C16.1783 69.0212 11.2217 64.0352 10.5004 57.6851C9.16577 45.9351 9.16577 34.0649 10.5004 22.3149C11.2217 15.9647 16.1783 10.9788 22.3237 10.2716ZM27.5081 51.6666V26.9533H31.888V51.6666H27.5081ZM39.9188 51.6666H35.5034V39.1266C35.5034 37.0733 35.4678 35.3499 35.3609 33.8099H39.2066L39.4203 36.4866H39.5271C40.2749 35.0933 42.1621 33.4066 45.0464 33.4066C48.0732 33.4066 51.2067 35.4233 51.2067 41.0699V51.6666H46.8269V41.5833C46.8269 39.0166 45.901 37.0733 43.5153 37.0733C41.7705 37.0733 40.5598 38.3566 40.0969 39.7133C39.9544 40.1166 39.9188 40.6666 39.9188 41.1799V51.6666Z" fill="black"/>
</svg>
