<svg viewBox="0 0 79 80" fill="none" xmlns="http://www.w3.org/2000/svg">
<path fill-rule="evenodd" clip-rule="evenodd" d="M22.3799 10.2716C33.542 8.98696 45.0814 8.98696 56.2434 10.2716C62.3888 10.9788 67.3455 15.9647 68.0667 22.3149C69.4014 34.0649 69.4014 45.9351 68.0667 57.6851C67.3455 64.0352 62.3888 69.0212 56.2434 69.7284C45.0814 71.013 33.542 71.013 22.3799 69.7284C16.2346 69.0212 11.2779 64.0352 10.5566 57.6851C9.22201 45.9351 9.22201 34.0649 10.5566 22.3149C11.2779 15.9647 16.2346 10.9788 22.3799 10.2716ZM41.6687 51.6666H27.4253V26.9533H31.8051V47.8899H41.6687V51.6666ZM47.7636 51.6666H43.3837V39.5666C43.3837 37.1466 43.3481 35.4233 43.2413 33.8099H47.0514L47.1938 37.2199H47.3363C48.1909 34.6899 50.2206 33.4066 52.0722 33.4066C52.4995 33.4066 52.7488 33.4433 53.1048 33.5166V37.7699C52.7488 37.6966 52.3571 37.6233 51.8229 37.6233C49.722 37.6233 48.2977 39.0166 47.906 41.0333C47.8348 41.4366 47.7636 41.9133 47.7636 42.4266V51.6666Z" fill="black"/>
</svg>
