<svg  viewBox="0 0 77 79" fill="none" xmlns="http://www.w3.org/2000/svg">
<path d="M31.1675 42.7917C31.1675 38.7013 34.3877 35.3854 38.36 35.3854C42.3323 35.3854 45.5525 38.7013 45.5525 42.7917C45.5525 46.882 42.3323 50.1979 38.36 50.1979C34.3877 50.1979 31.1675 46.882 31.1675 42.7917Z" fill="black"/>
<path fill-rule="evenodd" clip-rule="evenodd" d="M23.8908 25.1564C23.8908 19.4436 28.3883 14.8125 33.9362 14.8125H42.7837C48.3316 14.8125 52.8291 19.4436 52.8291 25.1564C52.8291 25.2052 52.8655 25.2459 52.9128 25.2499L60.0401 25.8459C63.2327 26.1129 65.8583 28.5439 66.4542 31.7846C67.9748 40.0543 68.0882 48.5332 66.7893 56.8428L66.4784 58.8316C65.8924 62.5805 62.896 65.4327 59.2205 65.7401L53.0115 66.2593C43.2598 67.0748 33.4601 67.0748 23.7084 66.2593L17.4994 65.7401C13.8239 65.4327 10.8275 62.5806 10.2415 58.8316L9.93061 56.8428C8.63171 48.5332 8.74509 40.0543 10.2657 31.7846C10.8616 28.5439 13.4872 26.1129 16.6798 25.8459L23.8071 25.2499C23.8544 25.2459 23.8908 25.2052 23.8908 25.1564ZM38.36 30.4479C31.7395 30.4479 26.3725 35.9744 26.3725 42.7917C26.3725 49.6089 31.7395 55.1354 38.36 55.1354C44.9806 55.1354 50.3475 49.6089 50.3475 42.7917C50.3475 35.9744 44.9806 30.4479 38.36 30.4479Z" fill="black"/>
</svg>
