<svg  viewBox="0 0 63 64" fill="none" xmlns="http://www.w3.org/2000/svg">
<path d="M17.6968 8.81451C19.0324 7.43924 20.8438 6.66663 22.7326 6.66663H29.8543V21.3333H22.7326C20.8438 21.3333 19.0324 20.5607 17.6968 19.1854C16.3612 17.8101 15.6109 15.9449 15.6109 14C15.6109 12.055 16.3612 10.1898 17.6968 8.81451Z" fill="black"/>
<path d="M40.8605 21.3333H33.7388V6.66663H40.8605C41.7958 6.66663 42.7218 6.85631 43.5859 7.22484C44.4499 7.59338 45.235 8.13355 45.8963 8.81451C46.5576 9.49547 47.0822 10.3039 47.4401 11.1936C47.798 12.0833 47.9822 13.0369 47.9822 14C47.9822 14.963 47.798 15.9166 47.4401 16.8063C47.0822 17.696 46.5576 18.5044 45.8963 19.1854C45.235 19.8664 44.4499 20.4065 43.5859 20.7751C42.7218 21.1436 41.7958 21.3333 40.8605 21.3333Z" fill="black"/>
<path d="M40.8605 25.3333C39.9253 25.3333 38.9992 25.523 38.1352 25.8915C37.2711 26.26 36.4861 26.8002 35.8247 27.4812C35.1634 28.1621 34.6389 28.9706 34.281 29.8603C33.9231 30.75 33.7388 31.7036 33.7388 32.6666C33.7388 33.6296 33.9231 34.5832 34.281 35.473C34.6389 36.3627 35.1634 37.1711 35.8247 37.8521C36.4861 38.533 37.2711 39.0732 38.1352 39.4417C38.9992 39.8103 39.9253 39.9999 40.8605 39.9999C41.7958 39.9999 42.7218 39.8103 43.5859 39.4417C44.4499 39.0732 45.235 38.533 45.8963 37.8521C46.5576 37.1711 47.0822 36.3627 47.4401 35.473C47.798 34.5832 47.9822 33.6296 47.9822 32.6666C47.9822 31.7036 47.798 30.75 47.4401 29.8603C47.0822 28.9706 46.5576 28.1621 45.8963 27.4812C45.235 26.8002 44.4499 26.26 43.5859 25.8915C42.7218 25.523 41.7958 25.3333 40.8605 25.3333Z" fill="black"/>
<path d="M17.6968 46.1478C19.0324 44.7726 20.8438 44 22.7326 44H29.8543V51.3333C29.8543 53.2782 29.104 55.1435 27.7684 56.5187C26.4328 57.894 24.6214 58.6666 22.7326 58.6666C20.8438 58.6666 19.0324 57.894 17.6968 56.5187C16.3612 55.1435 15.6109 53.2782 15.6109 51.3333C15.6109 49.3884 16.3612 47.5231 17.6968 46.1478Z" fill="black"/>
<path d="M22.7326 25.3333C20.8438 25.3333 19.0324 26.1059 17.6968 27.4812C16.3612 28.8564 15.6109 30.7217 15.6109 32.6666C15.6109 34.6115 16.3612 36.4768 17.6968 37.8521C19.0324 39.2273 20.8438 39.9999 22.7326 39.9999H29.8543V25.3333H22.7326Z" fill="black"/>
</svg>
