<svg  viewBox="0 0 3 3" fill="none" xmlns="http://www.w3.org/2000/svg">
<path d="M0.768553 0.413182C0.81029 0.348716 0.866897 0.3125 0.925922 0.3125H1.14847V0.999999H0.925922C0.866897 0.999999 0.81029 0.963783 0.768553 0.899317C0.726817 0.834852 0.703369 0.747418 0.703369 0.65625C0.703369 0.565082 0.726817 0.477648 0.768553 0.413182Z" fill="black"/>
<path d="M1.49242 0.999999H1.26987V0.3125H1.49242C1.52165 0.3125 1.55059 0.321391 1.57759 0.338666C1.60459 0.355941 1.62912 0.381262 1.64979 0.413182C1.67045 0.445102 1.68685 0.482997 1.69803 0.524702C1.70922 0.566408 1.71497 0.611108 1.71497 0.65625C1.71497 0.701391 1.70922 0.746091 1.69803 0.787797C1.68685 0.829503 1.67045 0.867397 1.64979 0.899317C1.62912 0.931237 1.60459 0.956558 1.57759 0.973833C1.55059 0.991108 1.52165 0.999999 1.49242 0.999999Z" fill="black"/>
<path d="M1.49242 1.1875C1.46319 1.1875 1.43425 1.19639 1.40725 1.21367C1.38025 1.23094 1.35572 1.25626 1.33505 1.28818C1.31439 1.3201 1.29799 1.358 1.28681 1.3997C1.27562 1.44141 1.26987 1.48611 1.26987 1.53125C1.26987 1.57639 1.27562 1.62109 1.28681 1.6628C1.29799 1.7045 1.31439 1.7424 1.33505 1.77432C1.35572 1.80624 1.38025 1.83156 1.40725 1.84883C1.43425 1.86611 1.46319 1.875 1.49242 1.875C1.52165 1.875 1.55059 1.86611 1.57759 1.84883C1.60459 1.83156 1.62912 1.80624 1.64979 1.77432C1.67045 1.7424 1.68685 1.7045 1.69803 1.6628C1.70922 1.62109 1.71497 1.57639 1.71497 1.53125C1.71497 1.48611 1.70922 1.44141 1.69803 1.3997C1.68685 1.358 1.67045 1.3201 1.64979 1.28818C1.62912 1.25626 1.60459 1.23094 1.57759 1.21367C1.55059 1.19639 1.52165 1.1875 1.49242 1.1875Z" fill="black"/>
<path d="M0.768553 2.16318C0.81029 2.09872 0.866897 2.0625 0.925922 2.0625H1.14847V2.40625C1.14847 2.49742 1.12503 2.58485 1.08329 2.64932C1.04155 2.71378 0.984946 2.75 0.925922 2.75C0.866897 2.75 0.81029 2.71378 0.768553 2.64932C0.726817 2.58485 0.703369 2.49742 0.703369 2.40625C0.703369 2.31508 0.726817 2.22765 0.768553 2.16318Z" fill="black"/>
<path d="M0.925922 1.1875C0.866897 1.1875 0.81029 1.22372 0.768553 1.28818C0.726817 1.35265 0.703369 1.44008 0.703369 1.53125C0.703369 1.62242 0.726817 1.70985 0.768553 1.77432C0.81029 1.83878 0.866897 1.875 0.925922 1.875H1.14847V1.1875H0.925922Z" fill="black"/>
</svg>
