<svg viewBox="0 0 77 79" fill="none" xmlns="http://www.w3.org/2000/svg">
<path d="M33.2881 34.7271L31.4828 40.7376H37.489L35.649 34.7271C35.2837 33.5255 34.9639 32.2054 34.6711 30.9971C34.6022 30.7124 34.5347 30.434 34.4685 30.1648H34.3991C34.2801 30.6486 34.1612 31.1665 34.0394 31.6965C33.8059 32.7134 33.562 33.775 33.2881 34.7271Z" fill="black"/>
<path fill-rule="evenodd" clip-rule="evenodd" d="M21.8264 10.1432C32.7093 8.87464 43.9603 8.87464 54.8433 10.1432C60.835 10.8416 65.6677 15.7652 66.371 22.036C67.6722 33.6391 67.6722 45.3609 66.371 56.964C65.6677 63.2348 60.835 68.1584 54.8433 68.8568C43.9603 70.1254 32.7093 70.1254 21.8264 68.8568C15.8346 68.1584 11.0019 63.2348 10.2986 56.964C8.99738 45.3609 8.99738 33.6391 10.2986 22.036C11.0019 15.7652 15.8346 10.8416 21.8264 10.1432ZM50.7465 33.3873V51.0208H46.4415V33.3873H50.7465ZM46.1984 28.463C46.1984 27.0871 47.1705 26.0371 48.594 26.0371C50.0522 26.0371 50.9548 27.0871 50.9895 28.463C50.9895 29.8027 50.0522 30.8528 48.5593 30.8528C47.1358 30.8528 46.1984 29.8027 46.1984 28.463ZM40.3359 51.0208L38.2181 44.105H30.7884L28.7747 51.0208H24.3655L31.8647 26.6164H37.3154L44.9187 51.0208H40.3359Z" fill="black"/>
</svg>
